<svg version="1.1" id="Layer_1" xmlns="http://www.w3.org/2000/svg" xmlns:xlink="http://www.w3.org/1999/xlink" x="0px" y="0px"
	 width="100%" viewBox="0 0 512 512" enable-background="new 0 0 512 512" xml:space="preserve">
<path fill="#080707" opacity="1.000000" stroke="none" 
	d="
M1.000000,111.000000 
	C1.000000,107.969406 1.000000,104.938812 1.330853,101.379013 
	C2.824014,99.481239 4.027975,98.145653 5.142151,96.738960 
	C15.725689,83.376793 26.024487,69.777130 36.957275,56.707607 
	C44.815765,47.313236 53.800762,38.866493 61.764030,29.553091 
	C71.053490,18.688631 82.307144,10.972752 95.579796,5.942372 
	C99.454369,4.473897 103.196930,2.657125 107.000000,1.000000 
	C116.020897,1.000000 125.041786,1.000000 134.637054,1.351368 
	C136.041031,2.139642 136.823837,2.758259 137.707367,2.985732 
	C148.130753,5.669359 157.970932,9.528529 165.766846,17.293339 
	C181.375793,32.839996 184.606079,52.919548 185.830612,73.565582 
	C186.068115,77.569809 183.832413,80.990051 178.506653,81.021851 
	C172.114227,79.871574 170.987656,78.116188 170.097504,71.547867 
	C168.962463,63.172531 168.023178,54.648331 165.638840,46.590946 
	C161.132935,31.364159 150.856247,21.621914 135.060959,18.203640 
	C102.844330,11.231607 72.365028,29.286682 61.514622,61.693359 
	C57.698174,73.091873 60.684322,83.394630 68.528938,92.296387 
	C75.171173,99.833717 83.870895,103.709679 93.421974,106.197861 
	C110.198547,110.568398 117.434601,122.196548 114.380089,139.180862 
	C111.890892,153.021881 105.474518,165.254089 98.955490,177.449478 
	C87.231842,199.381378 76.637863,221.774673 71.301414,246.256302 
	C64.860451,275.805054 67.450478,304.201324 82.810875,330.771759 
	C96.444283,354.354858 116.706482,371.050659 139.419739,385.322113 
	C156.635208,396.139160 175.599960,402.785736 194.354431,410.130859 
	C214.248230,417.922211 233.047073,428.210266 245.652405,445.997498 
	C251.215195,453.847015 256.938934,456.250763 265.703522,455.444000 
	C269.159546,455.125854 271.034027,454.128784 272.592529,451.097534 
	C277.616760,441.325562 283.232300,431.847870 288.006927,421.960724 
	C291.155090,415.441620 295.298950,412.892365 302.784637,412.997467 
	C334.432953,413.441803 360.453094,400.633759 379.105225,375.487061 
	C405.867645,339.406128 406.958344,299.814240 391.278717,258.886353 
	C391.027985,258.231842 390.372375,257.732452 389.585602,256.768494 
	C388.697571,257.865814 388.097961,258.662354 387.441864,259.409241 
	C373.101013,275.734253 357.297211,290.476105 339.797943,303.378052 
	C334.361816,307.386017 332.156494,307.274292 327.053894,302.452148 
	C324.804779,297.395172 326.788696,294.275421 330.588257,291.477753 
	C348.620300,278.200470 364.822266,262.943939 379.280731,245.847275 
	C380.784698,244.068878 383.001343,242.551361 380.817749,239.491409 
	C361.499512,212.419662 336.079681,194.877228 302.578003,189.090515 
	C273.807251,182.439667 245.468948,182.116074 217.304749,190.054672 
	C196.069427,196.040237 177.278580,206.342468 162.494675,223.051590 
	C151.736954,235.210220 145.268097,249.352936 146.378510,265.815369 
	C147.943283,289.014038 159.487915,306.389801 179.812836,317.482819 
	C204.284225,330.838837 230.342072,331.379486 257.343079,325.754089 
	C268.137177,322.411774 278.652710,319.341309 288.906494,315.560913 
	C293.800690,313.756500 297.537201,313.731934 300.769440,318.583191 
	C302.171356,324.288971 300.044556,327.375885 295.071289,329.486694 
	C271.118683,339.652893 246.281342,345.287506 220.188034,343.855255 
	C196.844604,342.573944 175.201355,336.086914 157.378265,320.165283 
	C139.746582,304.414612 130.557037,284.481781 131.474686,260.830170 
	C132.391617,237.196930 143.855240,218.353622 161.269119,202.957153 
	C166.174576,198.620010 171.565735,194.832230 176.933273,190.636810 
	C166.622223,181.748520 163.107742,170.244064 163.960037,157.627823 
	C164.922577,143.379990 167.007294,129.207230 168.636765,115.005592 
	C169.204559,110.056976 172.719772,108.536263 177.374695,108.058594 
	C182.189346,109.453690 184.365479,112.452812 183.883743,117.089226 
	C183.558945,120.215439 182.736328,123.289299 182.398285,126.414909 
	C181.204742,137.450333 179.606903,148.481003 179.244385,159.548920 
	C179.090286,164.253784 180.921402,169.389954 183.073776,173.722275 
	C186.740112,181.101944 192.276596,182.600876 199.943100,179.576385 
	C215.221802,173.548828 231.191895,170.113419 247.472809,169.171188 
	C268.777039,167.938278 290.035767,169.286469 310.739502,175.062607 
	C314.819061,176.200775 316.233856,174.733246 317.867126,171.436829 
	C332.809418,141.278473 347.995758,111.241005 362.922852,81.075195 
	C372.056915,62.616432 391.417084,54.357162 409.370544,58.437546 
	C433.023773,63.813328 446.525146,88.743835 443.340546,111.366425 
	C442.635284,116.376472 441.382812,121.309479 440.270050,126.835342 
	C462.979645,125.803169 478.584229,136.051895 487.880829,155.891769 
	C497.024048,175.404251 494.409180,194.271378 482.732971,212.638901 
	C497.374084,217.145950 506.227936,226.701019 511.367035,240.017899 
	C511.547577,240.485672 512.439575,240.678848 513.000000,241.000000 
	C513.000000,249.354233 513.000000,257.708466 512.660767,266.620972 
	C511.714325,268.121490 510.916260,268.991852 510.530426,270.017334 
	C507.499664,278.072540 502.577911,284.822327 495.149628,289.040771 
	C490.325134,291.780548 491.138245,293.989563 493.896729,297.363098 
	C499.268860,303.933075 501.846161,311.819336 501.850830,320.034149 
	C501.861328,338.425629 490.414764,357.163727 469.992279,361.033997 
	C467.033722,361.594666 465.520325,362.770477 466.521576,366.148132 
	C469.876373,377.465698 468.113068,388.162933 462.330963,398.337738 
	C455.292877,410.722717 440.764709,419.910004 424.912720,418.154968 
	C421.507263,417.777954 421.165405,419.444855 420.944366,422.189362 
	C419.837097,435.936646 412.438416,445.309418 400.116089,450.901520 
	C388.605316,456.125305 377.259308,454.925354 367.832489,446.889130 
	C360.342743,440.504211 354.045288,432.614685 347.809509,424.914520 
	C345.133698,421.610382 343.063446,421.050690 339.032532,421.977844 
	C328.558685,424.386871 317.870575,425.854187 307.365479,428.144623 
	C304.801910,428.703583 301.681274,430.428741 300.411194,432.565430 
	C294.379608,442.712616 288.697479,453.084076 283.312347,463.591644 
	C280.819794,468.455139 277.480957,470.965485 272.033112,471.099884 
	C270.710175,471.132538 268.443115,472.202454 268.264221,473.118439 
	C266.755157,480.844513 265.630402,488.645630 264.382599,496.471527 
	C277.080658,497.391113 280.082520,501.877106 274.000000,513.000000 
	C230.979111,513.000000 187.958206,513.000000 144.389801,512.662842 
	C141.123047,508.927887 139.344910,505.430634 141.528137,500.936615 
	C143.695007,496.476227 147.634415,497.014008 151.436218,497.006744 
	C160.762512,496.989014 170.091629,497.114197 179.412460,496.887726 
	C180.980835,496.849609 183.642197,495.584015 183.880508,494.473785 
	C185.496140,486.947601 186.596619,479.310822 187.950607,471.187866 
	C180.507568,471.499146 177.085815,467.895081 175.308167,461.636810 
	C171.083710,446.764343 166.546906,431.978760 161.940750,417.219116 
	C161.414459,415.532745 159.934158,413.725128 158.397263,412.850464 
	C153.498566,410.062622 148.313126,407.785065 143.329819,405.138336 
	C117.630020,391.488678 94.779816,374.251770 77.346085,350.697205 
	C62.346573,330.431580 54.051888,307.570770 52.985882,282.221436 
	C52.303062,265.984131 54.043564,250.032928 58.415161,234.391403 
	C59.463966,230.638779 58.967571,228.407501 54.618591,227.587402 
	C52.070919,227.107010 49.547245,225.875565 47.303593,224.505692 
	C29.784748,213.809509 23.003868,189.136520 31.633316,170.421829 
	C35.837601,161.303970 42.911396,154.928452 49.507168,147.920227 
	C56.862759,140.104675 63.293182,131.715820 64.382278,120.409248 
	C65.240128,111.503365 61.787605,107.090141 54.500427,108.123917 
	C43.020401,109.752502 31.547508,111.446129 20.042337,112.876945 
	C13.606043,113.677383 6.918206,115.910553 1.000000,111.000000 
M433.411041,142.668716 
	C426.166687,145.059952 420.943390,150.135330 416.057007,155.681335 
	C401.201569,172.542068 386.327637,189.386536 371.974823,205.654846 
	C381.213562,216.773911 390.201660,227.591339 399.433594,238.702194 
	C417.980499,230.770554 437.306641,222.726334 456.436401,214.239410 
	C467.350006,209.397583 475.082886,201.305420 477.152771,189.133041 
	C479.905731,172.943436 474.002228,159.662964 461.978760,149.080536 
	C454.034210,142.088181 444.714478,139.257767 433.411041,142.668716 
M419.020752,85.512939 
	C402.050903,68.168968 385.662750,70.620735 374.860748,92.124542 
	C360.771057,120.173195 346.684723,148.223541 332.602631,176.275986 
	C331.885986,177.703598 331.222504,179.157867 330.654144,180.348648 
	C340.539124,185.823486 350.089874,191.113205 360.101379,196.658127 
	C360.400604,196.278580 360.983246,195.462555 361.642792,194.714355 
	C380.578369,173.234085 399.568146,151.801392 418.447327,130.271683 
	C431.020447,115.933342 431.294495,101.150475 419.020752,85.512939 
M448.819458,282.230164 
	C456.629272,281.830688 464.442596,281.489136 472.248108,281.018158 
	C483.826782,280.319519 492.145416,274.593384 496.376587,263.876709 
	C500.335602,253.849304 499.158997,244.096863 491.621979,235.991394 
	C483.643738,227.411377 473.651184,224.955887 462.479889,228.443970 
	C457.747253,229.921677 453.239990,232.134048 448.656464,234.074310 
	C434.180664,240.202042 419.717194,246.358994 405.590668,252.359528 
	C408.750854,263.054779 411.789215,273.337799 414.992950,284.180389 
	C425.678925,283.567261 436.779510,282.930328 448.819458,282.230164 
M440.292969,297.879639 
	C432.237427,298.302887 424.181885,298.726166 416.589417,299.125092 
	C415.974396,308.897766 415.300323,318.001038 414.940704,327.116699 
	C414.888794,328.432037 416.036591,330.586639 417.156555,331.034729 
	C429.471283,335.961487 441.776855,340.958679 454.317780,345.257355 
	C464.221527,348.652100 473.145844,345.812622 480.108704,338.143890 
	C487.107910,330.435059 488.749603,321.335907 484.396179,311.781433 
	C480.033691,302.207123 472.431580,296.805237 461.662231,296.876038 
	C454.853302,296.920807 448.047821,297.497375 440.292969,297.879639 
M90.183357,161.668625 
	C93.337677,153.299957 97.005478,145.073914 99.389351,136.491241 
	C100.321014,133.136963 99.646194,127.786819 97.457222,125.444763 
	C93.176277,120.864449 86.705894,119.594414 80.106293,118.754227 
	C79.234978,134.845139 71.432411,146.993042 61.278126,157.945816 
	C58.452820,160.993286 54.967644,163.512054 52.544014,166.828003 
	C49.455658,171.053421 46.226631,175.551056 44.663528,180.444153 
	C40.408699,193.763351 46.720257,208.230621 57.822491,212.426437 
	C64.290176,214.870743 65.258644,214.554153 68.213684,208.330597 
	C75.480988,193.025070 82.673775,177.684143 90.183357,161.668625 
M433.081329,353.381348 
	C425.863953,350.637177 418.646545,347.892975 412.053101,345.386017 
	C406.860931,357.094574 401.839172,368.418854 396.599854,380.233765 
	C401.246521,385.224945 406.177673,391.114502 411.720367,396.357574 
	C425.136108,409.048035 447.733582,402.098236 452.100220,384.135193 
	C455.363556,370.710907 448.394135,359.157715 433.081329,353.381348 
M202.907715,479.285461 
	C202.152863,483.696747 201.652466,488.172150 200.562485,492.499023 
	C199.693375,495.949097 200.697250,497.047852 204.084656,497.028412 
	C217.400162,496.951996 230.718597,497.109161 244.029358,496.846405 
	C245.580093,496.815796 248.089813,494.960602 248.445068,493.527466 
	C249.957275,487.427002 250.873993,481.175049 251.904343,474.961151 
	C252.277176,472.712677 251.702301,470.900879 248.867218,471.023895 
	C244.182129,471.227142 241.665482,468.611633 239.741531,464.652954 
	C238.226578,461.535797 236.259033,458.582153 234.134216,455.832794 
	C231.696915,452.679108 228.864334,449.830933 225.372818,445.919525 
	C222.534729,453.091431 220.131134,458.870178 217.967590,464.737427 
	C216.546387,468.591522 214.114319,471.290344 209.938110,470.892853 
	C203.930099,470.320953 202.902573,473.701050 202.907715,479.285461 
M403.741241,411.000153 
	C398.133179,404.518585 392.525146,398.037048 387.449066,392.170349 
	C377.688080,399.824677 368.569641,406.975098 359.132141,414.375732 
	C363.179779,419.394806 367.592468,424.988922 372.137451,430.473389 
	C378.822021,438.539642 388.056946,440.358734 396.614563,435.419037 
	C405.033997,430.559021 407.850311,421.566559 403.741241,411.000153 
M183.492569,423.162476 
	C182.467590,422.936707 181.442596,422.710968 179.750259,422.338196 
	C183.039185,433.155396 186.066574,443.301636 189.280670,453.388367 
	C189.599335,454.388397 190.946289,455.510345 192.005295,455.754486 
	C201.278763,457.892242 204.793777,455.913971 208.250916,446.924744 
	C209.025513,444.910675 209.615143,442.779510 210.692184,440.937408 
	C212.859146,437.231079 211.446869,435.125641 207.964523,433.639252 
	C200.033279,430.253937 192.110931,426.847748 183.492569,423.162476 
M28.354216,90.853592 
	C27.141451,92.525108 25.928686,94.196625 24.099670,96.717499 
	C33.589191,95.472496 41.869392,94.386154 49.606567,93.371056 
	C47.635368,85.737923 45.852013,78.832184 43.984520,71.600632 
	C38.857513,77.915535 33.830914,84.106758 28.354216,90.853592 
z"/>
<path fill="#000000" opacity="1.000000" stroke="none" 
	d="
M513.000000,240.531342 
	C512.439575,240.678848 511.547577,240.485672 511.367035,240.017899 
	C506.227936,226.701019 497.374084,217.145950 482.732971,212.638901 
	C494.409180,194.271378 497.024048,175.404251 487.880829,155.891769 
	C478.584229,136.051895 462.979645,125.803169 440.270050,126.835342 
	C441.382812,121.309479 442.635284,116.376472 443.340546,111.366425 
	C446.525146,88.743835 433.023773,63.813328 409.370544,58.437546 
	C391.417084,54.357162 372.056915,62.616432 362.922852,81.075195 
	C347.995758,111.241005 332.809418,141.278473 317.867126,171.436829 
	C316.233856,174.733246 314.819061,176.200775 310.739502,175.062607 
	C290.035767,169.286469 268.777039,167.938278 247.472809,169.171188 
	C231.191895,170.113419 215.221802,173.548828 199.943100,179.576385 
	C192.276596,182.600876 186.740112,181.101944 183.073776,173.722275 
	C180.921402,169.389954 179.090286,164.253784 179.244385,159.548920 
	C179.606903,148.481003 181.204742,137.450333 182.398285,126.414909 
	C182.736328,123.289299 183.558945,120.215439 183.883743,117.089226 
	C184.365479,112.452812 182.189346,109.453690 177.521088,107.664917 
	C177.837997,98.490898 178.363052,89.763908 178.888092,81.036926 
	C183.832413,80.990051 186.068115,77.569809 185.830612,73.565582 
	C184.606079,52.919548 181.375793,32.839996 165.766846,17.293339 
	C157.970932,9.528529 148.130753,5.669359 137.707367,2.985732 
	C136.823837,2.758259 136.041031,2.139642 135.105713,1.351368 
	C260.910767,1.000000 386.821533,1.000000 513.000000,1.000000 
	C513.000000,80.687363 513.000000,160.375015 513.000000,240.531342 
z"/>
<path fill="#000000" opacity="1.000000" stroke="none" 
	d="
M1.000000,111.468658 
	C6.918206,115.910553 13.606043,113.677383 20.042337,112.876945 
	C31.547508,111.446129 43.020401,109.752502 54.500427,108.123917 
	C61.787605,107.090141 65.240128,111.503365 64.382278,120.409248 
	C63.293182,131.715820 56.862759,140.104675 49.507168,147.920227 
	C42.911396,154.928452 35.837601,161.303970 31.633316,170.421829 
	C23.003868,189.136520 29.784748,213.809509 47.303593,224.505692 
	C49.547245,225.875565 52.070919,227.107010 54.618591,227.587402 
	C58.967571,228.407501 59.463966,230.638779 58.415161,234.391403 
	C54.043564,250.032928 52.303062,265.984131 52.985882,282.221436 
	C54.051888,307.570770 62.346573,330.431580 77.346085,350.697205 
	C94.779816,374.251770 117.630020,391.488678 143.329819,405.138336 
	C148.313126,407.785065 153.498566,410.062622 158.397263,412.850464 
	C159.934158,413.725128 161.414459,415.532745 161.940750,417.219116 
	C166.546906,431.978760 171.083710,446.764343 175.308167,461.636810 
	C177.085815,467.895081 180.507568,471.499146 187.950607,471.187866 
	C186.596619,479.310822 185.496140,486.947601 183.880508,494.473785 
	C183.642197,495.584015 180.980835,496.849609 179.412460,496.887726 
	C170.091629,497.114197 160.762512,496.989014 151.436218,497.006744 
	C147.634415,497.014008 143.695007,496.476227 141.528137,500.936615 
	C139.344910,505.430634 141.123047,508.927887 143.921143,512.662842 
	C96.371620,513.000000 48.743248,513.000000 1.000000,513.000000 
	C1.000000,379.312469 1.000000,245.624893 1.000000,111.468658 
z"/>
<path fill="#000000" opacity="1.000000" stroke="none" 
	d="
M274.468658,513.000000 
	C280.082520,501.877106 277.080658,497.391113 264.382599,496.471527 
	C265.630402,488.645630 266.755157,480.844513 268.264221,473.118439 
	C268.443115,472.202454 270.710175,471.132538 272.033112,471.099884 
	C277.480957,470.965485 280.819794,468.455139 283.312347,463.591644 
	C288.697479,453.084076 294.379608,442.712616 300.411194,432.565430 
	C301.681274,430.428741 304.801910,428.703583 307.365479,428.144623 
	C317.870575,425.854187 328.558685,424.386871 339.032532,421.977844 
	C343.063446,421.050690 345.133698,421.610382 347.809509,424.914520 
	C354.045288,432.614685 360.342743,440.504211 367.832489,446.889130 
	C377.259308,454.925354 388.605316,456.125305 400.116089,450.901520 
	C412.438416,445.309418 419.837097,435.936646 420.944366,422.189362 
	C421.165405,419.444855 421.507263,417.777954 424.912720,418.154968 
	C440.764709,419.910004 455.292877,410.722717 462.330963,398.337738 
	C468.113068,388.162933 469.876373,377.465698 466.521576,366.148132 
	C465.520325,362.770477 467.033722,361.594666 469.992279,361.033997 
	C490.414764,357.163727 501.861328,338.425629 501.850830,320.034149 
	C501.846161,311.819336 499.268860,303.933075 493.896729,297.363098 
	C491.138245,293.989563 490.325134,291.780548 495.149628,289.040771 
	C502.577911,284.822327 507.499664,278.072540 510.530426,270.017334 
	C510.916260,268.991852 511.714325,268.121490 512.660767,267.089630 
	C513.000000,348.925995 513.000000,430.851959 513.000000,513.000000 
	C433.645905,513.000000 354.291626,513.000000 274.468658,513.000000 
z"/>
<path fill="#000000" opacity="1.000000" stroke="none" 
	d="
M106.531342,1.000000 
	C103.196930,2.657125 99.454369,4.473897 95.579796,5.942372 
	C82.307144,10.972752 71.053490,18.688631 61.764030,29.553091 
	C53.800762,38.866493 44.815765,47.313236 36.957275,56.707607 
	C26.024487,69.777130 15.725689,83.376793 5.142151,96.738960 
	C4.027975,98.145653 2.824014,99.481239 1.330853,100.924911 
	C1.000000,67.737595 1.000000,34.475193 1.000000,1.000000 
	C36.020607,1.000000 71.041649,1.000000 106.531342,1.000000 
z"/>
<path fill="#924D36" opacity="1.000000" stroke="none" 
	d="
M178.506638,81.021851 
	C178.363052,89.763908 177.837997,98.490898 177.166534,107.611557 
	C172.719772,108.536263 169.204559,110.056976 168.636765,115.005592 
	C167.007294,129.207230 164.922577,143.379990 163.960037,157.627823 
	C163.107742,170.244064 166.622223,181.748520 176.933273,190.636810 
	C171.565735,194.832230 166.174576,198.620010 161.269119,202.957153 
	C143.855240,218.353622 132.391617,237.196930 131.474686,260.830170 
	C130.557037,284.481781 139.746582,304.414612 157.378265,320.165283 
	C175.201355,336.086914 196.844604,342.573944 220.188034,343.855255 
	C246.281342,345.287506 271.118683,339.652893 295.071289,329.486694 
	C300.044556,327.375885 302.171356,324.288971 301.149658,318.501953 
	C310.010956,312.942108 318.574951,307.881317 327.138947,302.820526 
	C332.156494,307.274292 334.361816,307.386017 339.797943,303.378052 
	C357.297211,290.476105 373.101013,275.734253 387.441864,259.409241 
	C388.097961,258.662354 388.697571,257.865814 389.585602,256.768494 
	C390.372375,257.732452 391.027985,258.231842 391.278717,258.886353 
	C406.958344,299.814240 405.867645,339.406128 379.105225,375.487061 
	C360.453094,400.633759 334.432953,413.441803 302.784637,412.997467 
	C295.298950,412.892365 291.155090,415.441620 288.006927,421.960724 
	C283.232300,431.847870 277.616760,441.325562 272.592529,451.097534 
	C271.034027,454.128784 269.159546,455.125854 265.703522,455.444000 
	C256.938934,456.250763 251.215195,453.847015 245.652405,445.997498 
	C233.047073,428.210266 214.248230,417.922211 194.354431,410.130859 
	C175.599960,402.785736 156.635208,396.139160 139.419739,385.322113 
	C116.706482,371.050659 96.444283,354.354858 82.810875,330.771759 
	C67.450478,304.201324 64.860451,275.805054 71.301414,246.256302 
	C76.637863,221.774673 87.231842,199.381378 98.955490,177.449478 
	C105.474518,165.254089 111.890892,153.021881 114.380089,139.180862 
	C117.434601,122.196548 110.198547,110.568398 93.421974,106.197861 
	C83.870895,103.709679 75.171173,99.833717 68.528938,92.296387 
	C60.684322,83.394630 57.698174,73.091873 61.514622,61.693359 
	C72.365028,29.286682 102.844330,11.231607 135.060959,18.203640 
	C150.856247,21.621914 161.132935,31.364159 165.638840,46.590946 
	C168.023178,54.648331 168.962463,63.172531 170.097504,71.547867 
	C170.987656,78.116188 172.114227,79.871574 178.506638,81.021851 
M127.171265,51.425304 
	C117.693001,43.106140 104.389557,42.738609 95.880501,50.560841 
	C92.082626,54.052162 91.427444,58.179546 94.130325,61.586227 
	C96.737167,64.871872 101.129303,65.278717 105.244324,62.235241 
	C109.330383,59.213181 113.110992,59.208179 117.038139,62.381790 
	C120.493462,65.174088 124.150391,65.351974 127.377762,62.213001 
	C130.619492,59.060055 130.568237,55.468395 127.171265,51.425304 
z"/>
<path fill="#C85929" opacity="1.000000" stroke="none" 
	d="
M256.957001,325.734406 
	C230.342072,331.379486 204.284225,330.838837 179.812836,317.482819 
	C159.487915,306.389801 147.943283,289.014038 146.378510,265.815369 
	C145.268097,249.352936 151.736954,235.210220 162.494675,223.051590 
	C177.278580,206.342468 196.069427,196.040237 217.304749,190.054672 
	C245.468948,182.116074 273.807251,182.439667 302.674377,189.409821 
	C305.103241,191.058807 306.988617,192.385788 309.001770,193.477081 
	C329.220062,204.437027 346.000824,219.186798 358.924805,238.292847 
	C360.894775,241.205139 361.277252,243.376678 358.631317,246.134628 
	C349.226044,255.938065 340.315674,266.234009 330.642303,275.758911 
	C309.955017,296.128754 286.295197,312.243652 259.544586,323.710083 
	C258.571564,324.127136 257.814636,325.048248 256.957001,325.734406 
z"/>
<path fill="#FCCE89" opacity="1.000000" stroke="none" 
	d="
M433.779663,142.508087 
	C444.714478,139.257767 454.034210,142.088181 461.978760,149.080536 
	C474.002228,159.662964 479.905731,172.943436 477.152771,189.133041 
	C475.082886,201.305420 467.350006,209.397583 456.436401,214.239410 
	C437.306641,222.726334 417.980499,230.770554 399.433594,238.702194 
	C390.201660,227.591339 381.213562,216.773911 371.974823,205.654846 
	C386.327637,189.386536 401.201569,172.542068 416.057007,155.681335 
	C420.943390,150.135330 426.166687,145.059952 433.779663,142.508087 
z"/>
<path fill="#FCDBA8" opacity="1.000000" stroke="none" 
	d="
M419.258972,85.781403 
	C431.294495,101.150475 431.020447,115.933342 418.447327,130.271683 
	C399.568146,151.801392 380.578369,173.234085 361.642792,194.714355 
	C360.983246,195.462555 360.400604,196.278580 360.101379,196.658127 
	C350.089874,191.113205 340.539124,185.823486 330.654144,180.348648 
	C331.222504,179.157867 331.885986,177.703598 332.602631,176.275986 
	C346.684723,148.223541 360.771057,120.173195 374.860748,92.124542 
	C385.662750,70.620735 402.050903,68.168968 419.258972,85.781403 
z"/>
<path fill="#FCDAA8" opacity="1.000000" stroke="none" 
	d="
M448.349792,282.261780 
	C436.779510,282.930328 425.678925,283.567261 414.992950,284.180389 
	C411.789215,273.337799 408.750854,263.054779 405.590668,252.359528 
	C419.717194,246.358994 434.180664,240.202042 448.656464,234.074310 
	C453.239990,232.134048 457.747253,229.921677 462.479889,228.443970 
	C473.651184,224.955887 483.643738,227.411377 491.621979,235.991394 
	C499.158997,244.096863 500.335602,253.849304 496.376587,263.876709 
	C492.145416,274.593384 483.826782,280.319519 472.248108,281.018158 
	C464.442596,281.489136 456.629272,281.830688 448.349792,282.261780 
z"/>
<path fill="#FCCD89" opacity="1.000000" stroke="none" 
	d="
M440.766907,297.857544 
	C448.047821,297.497375 454.853302,296.920807 461.662231,296.876038 
	C472.431580,296.805237 480.033691,302.207123 484.396179,311.781433 
	C488.749603,321.335907 487.107910,330.435059 480.108704,338.143890 
	C473.145844,345.812622 464.221527,348.652100 454.317780,345.257355 
	C441.776855,340.958679 429.471283,335.961487 417.156555,331.034729 
	C416.036591,330.586639 414.888794,328.432037 414.940704,327.116699 
	C415.300323,318.001038 415.974396,308.897766 416.589417,299.125092 
	C424.181885,298.726166 432.237427,298.302887 440.766907,297.857544 
z"/>
<path fill="#AA4C24" opacity="1.000000" stroke="none" 
	d="
M257.343079,325.754089 
	C257.814636,325.048248 258.571564,324.127136 259.544586,323.710083 
	C286.295197,312.243652 309.955017,296.128754 330.642303,275.758911 
	C340.315674,266.234009 349.226044,255.938065 358.631317,246.134628 
	C361.277252,243.376678 360.894775,241.205139 358.924805,238.292847 
	C346.000824,219.186798 329.220062,204.437027 309.001770,193.477081 
	C306.988617,192.385788 305.103241,191.058807 303.062195,189.521912 
	C336.079681,194.877228 361.499512,212.419662 380.817749,239.491409 
	C383.001343,242.551361 380.784698,244.068878 379.280731,245.847275 
	C364.822266,262.943939 348.620300,278.200470 330.588257,291.477753 
	C326.788696,294.275421 324.804779,297.395172 327.053894,302.452148 
	C318.574951,307.881317 310.010956,312.942108 301.066742,318.084106 
	C297.537201,313.731934 293.800690,313.756500 288.906494,315.560913 
	C278.652710,319.341309 268.137177,322.411774 257.343079,325.754089 
z"/>
<path fill="#D62E3C" opacity="1.000000" stroke="none" 
	d="
M90.039948,162.013031 
	C82.673775,177.684143 75.480988,193.025070 68.213684,208.330597 
	C65.258644,214.554153 64.290176,214.870743 57.822491,212.426437 
	C46.720257,208.230621 40.408699,193.763351 44.663528,180.444153 
	C46.226631,175.551056 49.455658,171.053421 52.544014,166.828003 
	C54.967644,163.512054 58.452820,160.993286 61.278126,157.945816 
	C71.432411,146.993042 79.234978,134.845139 80.106293,118.754227 
	C86.705894,119.594414 93.176277,120.864449 97.457222,125.444763 
	C99.646194,127.786819 100.321014,133.136963 99.389351,136.491241 
	C97.005478,145.073914 93.337677,153.299957 90.039948,162.013031 
z"/>
<path fill="#FCDAA7" opacity="1.000000" stroke="none" 
	d="
M433.421326,353.558136 
	C448.394135,359.157715 455.363556,370.710907 452.100220,384.135193 
	C447.733582,402.098236 425.136108,409.048035 411.720367,396.357574 
	C406.177673,391.114502 401.246521,385.224945 396.599854,380.233765 
	C401.839172,368.418854 406.860931,357.094574 412.053101,345.386017 
	C418.646545,347.892975 425.863953,350.637177 433.421326,353.558136 
z"/>
<path fill="#000000" opacity="1.000000" stroke="none" 
	d="
M202.940491,478.849915 
	C202.902573,473.701050 203.930099,470.320953 209.938110,470.892853 
	C214.114319,471.290344 216.546387,468.591522 217.967590,464.737427 
	C220.131134,458.870178 222.534729,453.091431 225.372818,445.919525 
	C228.864334,449.830933 231.696915,452.679108 234.134216,455.832794 
	C236.259033,458.582153 238.226578,461.535797 239.741531,464.652954 
	C241.665482,468.611633 244.182129,471.227142 248.867218,471.023895 
	C251.702301,470.900879 252.277176,472.712677 251.904343,474.961151 
	C250.873993,481.175049 249.957275,487.427002 248.445068,493.527466 
	C248.089813,494.960602 245.580093,496.815796 244.029358,496.846405 
	C230.718597,497.109161 217.400162,496.951996 204.084656,497.028412 
	C200.697250,497.047852 199.693375,495.949097 200.562485,492.499023 
	C201.652466,488.172150 202.152863,483.696747 202.940491,478.849915 
z"/>
<path fill="#FBCD88" opacity="1.000000" stroke="none" 
	d="
M403.891602,411.351685 
	C407.850311,421.566559 405.033997,430.559021 396.614563,435.419037 
	C388.056946,440.358734 378.822021,438.539642 372.137451,430.473389 
	C367.592468,424.988922 363.179779,419.394806 359.132141,414.375732 
	C368.569641,406.975098 377.688080,399.824677 387.449066,392.170349 
	C392.525146,398.037048 398.133179,404.518585 403.891602,411.351685 
z"/>
<path fill="#793E2B" opacity="1.000000" stroke="none" 
	d="
M183.838776,423.306244 
	C192.110931,426.847748 200.033279,430.253937 207.964523,433.639252 
	C211.446869,435.125641 212.859146,437.231079 210.692184,440.937408 
	C209.615143,442.779510 209.025513,444.910675 208.250916,446.924744 
	C204.793777,455.913971 201.278763,457.892242 192.005295,455.754486 
	C190.946289,455.510345 189.599335,454.388397 189.280670,453.388367 
	C186.066574,443.301636 183.039185,433.155396 179.750259,422.338196 
	C181.442596,422.710968 182.467590,422.936707 183.838776,423.306244 
z"/>
<path fill="#F7CE08" opacity="1.000000" stroke="none" 
	d="
M28.579266,90.575790 
	C33.830914,84.106758 38.857513,77.915535 43.984520,71.600632 
	C45.852013,78.832184 47.635368,85.737923 49.606567,93.371056 
	C41.869392,94.386154 33.589191,95.472496 24.099670,96.717499 
	C25.928686,94.196625 27.141451,92.525108 28.579266,90.575790 
z"/>
<path fill="#090707" opacity="1.000000" stroke="none" 
	d="
M127.428513,51.692291 
	C130.568237,55.468395 130.619492,59.060055 127.377762,62.213001 
	C124.150391,65.351974 120.493462,65.174088 117.038139,62.381790 
	C113.110992,59.208179 109.330383,59.213181 105.244324,62.235241 
	C101.129303,65.278717 96.737167,64.871872 94.130325,61.586227 
	C91.427444,58.179546 92.082626,54.052162 95.880501,50.560841 
	C104.389557,42.738609 117.693001,43.106140 127.428513,51.692291 
z"/>
</svg>